<svg xmlns="http://www.w3.org/2000/svg" viewBox="0 0 120 120"><defs><style>.cls-1{fill:#22a5fa;}.cls-2{fill:#fff;}</style></defs><title>icon-campaigns</title><g id="Layer_2" data-name="Layer 2"><g id="Layer_1-2" data-name="Layer 1"><circle class="cls-1" cx="60" cy="60" r="60"/><path class="cls-2" d="M60,36.48a5.71,5.71,0,1,1-6,5.7A5.82,5.82,0,0,1,60,36.48ZM40.48,69.53l10-4.12a4.86,4.86,0,0,0,.58,1.11c.25.4.42.79.67,1.27a9.61,9.61,0,0,0,16.4,0l.09-.16a5.87,5.87,0,0,0,.66-1.27c.17-.31.33-.63.5-1l10.11,4.12A1.5,1.5,0,0,0,81.68,68L78.86,55a4.37,4.37,0,0,0-1.74-2.7l-4.56-3.09a34.9,34.9,0,0,0-10.2-22.35L60.79,25.3a1.09,1.09,0,0,0-1.5,0L57.8,26.72A34.82,34.82,0,0,0,47.44,49.16l-4.56,3.09a4.87,4.87,0,0,0-1.74,2.69l-2.81,13a1.48,1.48,0,0,0,2.15,1.59Z"/><path class="cls-2" d="M60,94.58l4.81-9.51a5.62,5.62,0,0,0-1.16-6.66,6.27,6.27,0,0,0-8.62,0,5.6,5.6,0,0,0-1.15,6.66l4.8,9.51a.73.73,0,0,0,1.32,0Z"/></g></g></svg>