<svg xmlns="http://www.w3.org/2000/svg" viewBox="0 0 120 120"><defs><style>.cls-1{fill:#7c25f8;}.cls-2{fill:#fff;}</style></defs><title>icon-data-team</title><g id="Layer_2" data-name="Layer 2"><g id="Layer_1-2" data-name="Layer 1"><circle class="cls-1" cx="60" cy="60" r="60"/><path class="cls-2" d="M62.83,88.5a3,3,0,1,1-3-3,3,3,0,0,1,3,3ZM37,79.79a3,3,0,1,1,3-3,3,3,0,0,1-3,3ZM83,73.85a3,3,0,1,1-3,3,3,3,0,0,1,3-3ZM73,78.59H76.7a6.51,6.51,0,1,0,0-3.54H73a3.35,3.35,0,0,1-3.35-3.35v-8H77a12,12,0,0,0,4.35-23.17v-.77h0A14.86,14.86,0,0,0,56,29.27,12.27,12.27,0,0,0,38.62,40.42v.14h0A12,12,0,0,0,43,63.73h7.31v8A3.35,3.35,0,0,1,47,75.05H43.3a6.51,6.51,0,1,0,0,3.54H47a6.9,6.9,0,0,0,6.89-6.89v-8h4.25v18.5a6.5,6.5,0,1,0,3.54,0V63.73H66.1v8A6.9,6.9,0,0,0,73,78.59Z"/></g></g></svg>