<svg xmlns="http://www.w3.org/2000/svg" viewBox="0 0 120 120"><defs><style>.cls-1{fill:#ff2178;}.cls-2{fill:#fff;}</style></defs><title>icon-dashboards</title><g id="Layer_2" data-name="Layer 2"><g id="Layer_1-2" data-name="Layer 1"><circle class="cls-1" cx="60" cy="60" r="60"/><path class="cls-2" d="M32.57,62.36a7.57,7.57,0,1,0,7.57,7.57A7.57,7.57,0,0,0,32.57,62.36Zm0,11.36a3.79,3.79,0,1,1,3.78-3.79A3.79,3.79,0,0,1,32.57,73.72Z"/><path class="cls-2" d="M49.59,42.5a7.57,7.57,0,1,0,7.57,7.57A7.57,7.57,0,0,0,49.59,42.5Zm0,11.35a3.79,3.79,0,1,1,3.79-3.78A3.78,3.78,0,0,1,49.59,53.85Z"/><path class="cls-2" d="M68.51,62.36a7.57,7.57,0,1,0,7.57,7.57A7.56,7.56,0,0,0,68.51,62.36Zm0,11.36a3.79,3.79,0,1,1,3.79-3.79A3.79,3.79,0,0,1,68.51,73.72Z"/><path class="cls-2" d="M87.43,42.5A7.57,7.57,0,1,0,95,50.07,7.57,7.57,0,0,0,87.43,42.5Zm0,11.35a3.79,3.79,0,1,1,3.79-3.78A3.78,3.78,0,0,1,87.43,53.85Z"/><rect class="cls-2" x="38.58" y="52.3" width="3.78" height="15.14" transform="translate(54.19 -11.08) rotate(45)"/><rect class="cls-2" x="57.5" y="52.3" width="3.78" height="15.14" transform="translate(143.72 60.2) rotate(135)"/><rect class="cls-2" x="76.42" y="52.3" width="3.78" height="15.14" transform="translate(91.35 157.57) rotate(-135)"/></g></g></svg>