<svg xmlns="http://www.w3.org/2000/svg" viewBox="0 0 120 120"><defs><style>.cls-1{fill:#eb143a;}.cls-2{fill:#fff;}</style></defs><title>icon-design-assets</title><g id="Layer_2" data-name="Layer 2"><g id="Layer_1-2" data-name="Layer 1"><circle class="cls-1" cx="60" cy="60" r="60"/><rect class="cls-2" x="52.5" y="53.75" width="15" height="35" transform="translate(120 142.5) rotate(-180)"/><path class="cls-2" d="M72.5,53.75h15a0,0,0,0,1,0,0v32a3,3,0,0,1-3,3h-12a0,0,0,0,1,0,0v-35A0,0,0,0,1,72.5,53.75Z"/><path class="cls-2" d="M35.5,31.25h12a0,0,0,0,1,0,0v57.5a0,0,0,0,1,0,0h-12a3,3,0,0,1-3-3V34.25a3,3,0,0,1,3-3Z"/><path class="cls-2" d="M64.16,22.59H78.84a0,0,0,0,1,0,0v35a0,0,0,0,1,0,0H64.16a3,3,0,0,1-3-3v-29a3,3,0,0,1,3-3Z" transform="translate(110.09 -29.91) rotate(90)"/></g></g></svg>