<svg xmlns="http://www.w3.org/2000/svg" viewBox="0 0 120 120"><defs><style>.cls-1{fill:#ffb300;}.cls-2{fill:#fff;}</style></defs><title>icon-partnerships</title><g id="Layer_2" data-name="Layer 2"><g id="Layer_1-2" data-name="Layer 1"><circle class="cls-1" cx="60" cy="60" r="60"/><path class="cls-2" d="M79.68,75.52a4.08,4.08,0,1,0,4.08,4.07A4.05,4.05,0,0,0,79.68,75.52Zm-34-2.72a3.4,3.4,0,1,0,3.4,3.4A3.36,3.36,0,0,0,45.71,72.8ZM60,53.78a6.12,6.12,0,1,0,6.11,6.11A6.09,6.09,0,0,0,60,53.78ZM31.45,47.66a2,2,0,1,0,2,2A2,2,0,0,0,31.45,47.66ZM81,40.19a2.72,2.72,0,1,0,2.72,2.72A2.69,2.69,0,0,0,81,40.19ZM52.51,29.32a3.4,3.4,0,1,0,3.39,3.4A3.37,3.37,0,0,0,52.51,29.32Zm0-4.07A7.46,7.46,0,0,1,56.5,39L59.89,49.7H60a10.17,10.17,0,0,1,7.22,3L75,45.92a6.65,6.65,0,0,1-.72-3A6.79,6.79,0,1,1,81,49.7a6.63,6.63,0,0,1-3.25-.83l-8.34,7.31a10,10,0,0,1,.72,3.71,10.11,10.11,0,0,1-1.7,5.61l7.09,7.09a8.08,8.08,0,0,1,4.12-1.15,8.16,8.16,0,1,1-8.15,8.15,8,8,0,0,1,1.15-4.14l-7.07-7.07a10.13,10.13,0,0,1-10.72.32l-3,3.34a7.36,7.36,0,0,1,1.28,4.16,7.48,7.48,0,1,1-7.48-7.48,7.38,7.38,0,0,1,3.08.68l3-3.41a10.15,10.15,0,0,1-2-6.1A10,10,0,0,1,50,57.83L36.16,53.59a6.11,6.11,0,1,1,1.4-3.89v.07L51.64,54.1a10.31,10.31,0,0,1,4.26-3.53L52.59,40.19h-.08a7.47,7.47,0,1,1,0-14.94Z"/></g></g></svg>